<svg xmlns="http://www.w3.org/2000/svg" viewBox="0 0 512 512">
  <defs>
    <linearGradient id="fabric" x1="0" x2="0" y1="0" y2="1">
      <stop offset="0%" stop-color="rgba(255,255,255,0.55)"/>
      <stop offset="55%" stop-color="rgba(255,255,255,0.22)"/>
      <stop offset="100%" stop-color="rgba(255,255,255,0.08)"/>
    </linearGradient>
    <filter id="soft" x="-20%" y="-20%" width="140%" height="140%">
      <feGaussianBlur stdDeviation="2.8" result="blur"/>
      <feColorMatrix in="blur" type="matrix"
        values="1 0 0 0 0
                0 1 0 0 0
                0 0 1 0 0
                0 0 0 0.65 0"/>
      <feMerge>
        <feMergeNode/>
        <feMergeNode in="SourceGraphic"/>
      </feMerge>
    </filter>
  </defs>

  <!-- simple tee silhouette -->
  <path filter="url(#soft)" fill="url(#fabric)" stroke="rgba(255,255,255,0.28)" stroke-width="6"
    d="M168 64c18 22 40 34 88 34s70-12 88-34l56 28c16 8 22 26 13 42l-32 56c-6 10-19 14-30 9l-27-13v245c0 22-18 40-40 40H228c-22 0-40-18-40-40V186l-27 13c-11 5-24 1-30-9l-32-56c-9-16-3-34 13-42l56-28Z"/>
  <path fill="rgba(0,0,0,0.08)"
    d="M256 98c-44 0-68-10-88-34l-14 7 26 30c18 20 42 32 76 32s58-12 76-32l26-30-14-7c-20 24-44 34-88 34Z"/>
</svg>

